<svg xmlns="http://www.w3.org/2000/svg" width="500" height="200" viewBox="0 0 500 200"><g transform="translate(222.1320495605469,76.66666603088376)translate(137.8679504394531,23.33333396911621)rotate(0)translate(-137.8679504394531,-23.33333396911621)" opacity="1"><path transform="translate(6,29.252000000000002)rotate(0)" d="M11.41 0L11.41 0Q10.48 0 9.94-1.19L9.94-1.19L1.04-22.25L1.04-22.25Q0.86-22.72 0.86-23.04L0.86-23.04L0.86-23.04Q0.86-23.80 1.73-24.19L1.73-24.19L1.73-24.19Q2.16-24.41 2.59-24.41L2.59-24.41L2.59-24.41Q3.46-24.41 3.82-23.44L3.82-23.44L11.70-4.79L19.37-23.44L19.37-23.44Q19.76-24.41 20.59-24.41L20.59-24.41L20.59-24.41Q20.99-24.41 21.46-24.19L21.46-24.19L21.46-24.19Q22.28-23.80 22.28-22.97L22.28-22.97L22.28-22.97Q22.28-22.57 22.14-22.25L22.14-22.25L13.18-1.19L13.18-1.19Q12.60 0 11.56 0L11.56 0L11.41 0ZM48.31-24.41L48.31-24.41Q49.54-24.41 49.54-22.90L49.54-22.90L49.54-1.51L49.54-1.51Q49.54-0.79 49.14-0.40L49.14-0.40L49.14-0.40Q48.74 0 48.02 0L48.02 0L48.02 0Q47.30 0 46.91-0.40L46.91-0.40L46.91-0.40Q46.51-0.79 46.51-1.51L46.51-1.51L46.51-18.18L39.89-8.42L39.89-8.42Q39.53-7.92 39.10-7.69L39.10-7.69L39.10-7.69Q38.66-7.45 38.05-7.45L38.05-7.45L38.05-7.45Q37.62-7.45 37.28-7.69L37.28-7.69L37.28-7.69Q36.94-7.92 36.58-8.42L36.58-8.42L29.92-18.22L29.92-1.51L29.92-1.51Q29.92-0.79 29.52-0.40L29.52-0.40L29.52-0.40Q29.12 0 28.40 0L28.40 0L28.40 0Q27.68 0 27.29-0.40L27.29-0.40L27.29-0.40Q26.89-0.79 26.89-1.51L26.89-1.51L26.89-22.90L26.89-22.90Q26.89-23.62 27.29-24.01L27.29-24.01L27.29-24.01Q27.68-24.41 28.40-24.41L28.40-24.41L28.40-24.41Q29.41-24.41 30.06-23.44L30.06-23.44L38.27-11.09L46.48-23.44L46.48-23.44Q47.09-24.41 48.31-24.41L48.31-24.41ZM64.22 0L64.22 0Q60.08 0 58.12-1.96L58.12-1.96L58.12-1.96Q56.16-3.92 56.16-8.06L56.16-8.06L56.16-16.34L56.16-16.34Q56.16-20.48 58.12-22.46L58.12-22.46L58.12-22.46Q60.08-24.44 64.19-24.41L64.19-24.41L68.54-24.41L68.54-24.41Q71.93-24.41 73.71-23.00L73.71-23.00L73.71-23.00Q75.49-21.60 75.78-18.61L75.78-18.61L75.78-18.61Q75.89-17.86 75.49-17.46L75.49-17.46L75.49-17.46Q75.10-17.06 74.34-17.06L74.34-17.06L74.34-17.06Q73.62-17.06 73.24-17.44L73.24-17.44L73.24-17.44Q72.86-17.82 72.76-18.58L72.76-18.58L72.76-18.58Q72.58-20.20 71.64-20.79L71.64-20.79L71.64-20.79Q70.70-21.38 68.54-21.38L68.54-21.38L64.19-21.38L64.19-21.38Q62.24-21.42 61.16-20.95L61.16-20.95L61.16-20.95Q60.08-20.48 59.63-19.40L59.63-19.40L59.63-19.40Q59.18-18.32 59.18-16.34L59.18-16.34L59.18-8.06L59.18-8.06Q59.18-6.08 59.65-5.02L59.65-5.02L59.65-5.02Q60.12-3.96 61.18-3.49L61.18-3.49L61.18-3.49Q62.24-3.02 64.22-3.02L64.22-3.02L68.54-3.02L68.54-3.02Q70.70-3.02 71.64-3.62L71.64-3.62L71.64-3.62Q72.58-4.21 72.76-5.83L72.76-5.83L72.76-5.83Q72.86-6.59 73.24-6.97L73.24-6.97L73.24-6.97Q73.62-7.34 74.34-7.34L74.34-7.34L74.34-7.34Q75.10-7.34 75.49-6.95L75.49-6.95L75.49-6.95Q75.89-6.55 75.78-5.80L75.78-5.80L75.78-5.80Q75.49-2.81 73.71-1.40L73.71-1.40L73.71-1.40Q71.93 0 68.54 0L68.54 0L64.22 0ZM99.47 0L99.47 0Q96.37 0 94.66-1.24L94.66-1.24L94.66-1.24Q92.95-2.48 92.52-5.08L92.52-5.08L92.52-5.08Q92.45-5.83 92.84-6.25L92.84-6.25L92.84-6.25Q93.24-6.66 94.00-6.66L94.00-6.66L94.00-6.66Q94.72-6.66 95.08-6.32L95.08-6.32L95.08-6.32Q95.44-5.98 95.58-5.18L95.58-5.18L95.58-5.18Q95.83-3.96 96.71-3.49L96.71-3.49L96.71-3.49Q97.60-3.02 99.47-3.02L99.47-3.02L104.65-3.02L104.65-3.02Q106.24-3.02 107.08-3.38L107.08-3.38L107.08-3.38Q107.93-3.74 108.29-4.59L108.29-4.59L108.29-4.59Q108.65-5.44 108.65-6.98L108.65-6.98L108.65-6.98Q108.65-9.29 107.78-10.15L107.78-10.15L107.78-10.15Q106.92-11.02 104.65-11.02L104.65-11.02L100.19-11.02L100.19-11.02Q96.80-11.02 95.15-12.67L95.15-12.67L95.15-12.67Q93.49-14.33 93.49-17.75L93.49-17.75L93.49-17.75Q93.49-21.13 95.13-22.77L95.13-22.77L95.13-22.77Q96.77-24.41 100.15-24.41L100.15-24.41L104.44-24.41L104.44-24.41Q110.12-24.41 110.99-19.66L110.99-19.66L110.99-19.66Q111.10-18.90 110.70-18.49L110.70-18.49L110.70-18.49Q110.30-18.07 109.51-18.07L109.51-18.07L109.51-18.07Q108.79-18.07 108.43-18.43L108.43-18.43L108.43-18.43Q108.07-18.79 107.96-19.55L107.96-19.55L107.96-19.55Q107.68-20.59 106.88-20.99L106.88-20.99L106.88-20.99Q106.09-21.38 104.44-21.38L104.44-21.38L100.15-21.38L100.15-21.38Q98.68-21.38 97.90-21.06L97.90-21.06L97.90-21.06Q97.13-20.74 96.82-19.96L96.82-19.96L96.82-19.96Q96.52-19.19 96.52-17.75L96.52-17.75L96.52-17.75Q96.52-16.27 96.84-15.50L96.84-15.50L96.84-15.50Q97.16-14.72 97.94-14.38L97.94-14.38L97.94-14.38Q98.71-14.04 100.19-14.04L100.19-14.04L104.65-14.04L104.65-14.04Q108.22-14.04 109.94-12.31L109.94-12.31L109.94-12.31Q111.67-10.58 111.67-6.98L111.67-6.98L111.67-6.98Q111.67-3.42 109.94-1.71L109.94-1.71L109.94-1.71Q108.22 0 104.65 0L104.65 0L99.47 0ZM132.73-3.02L132.73-3.02Q133.45-3.02 133.85-2.63L133.85-2.63L133.85-2.63Q134.24-2.23 134.24-1.51L134.24-1.51L134.24-1.51Q134.24-0.79 133.85-0.40L133.85-0.40L133.85-0.40Q133.45 0 132.73 0L132.73 0L119.81 0L119.81 0Q119.09 0 118.69-0.40L118.69-0.40L118.69-0.40Q118.30-0.79 118.30-1.51L118.30-1.51L118.30-22.90L118.30-22.90Q118.30-23.62 118.69-24.01L118.69-24.01L118.69-24.01Q119.09-24.41 119.81-24.41L119.81-24.41L132.73-24.41L132.73-24.41Q133.45-24.41 133.85-24.01L133.85-24.01L133.85-24.01Q134.24-23.62 134.24-22.90L134.24-22.90L134.24-22.90Q134.24-22.18 133.85-21.78L133.85-21.78L133.85-21.78Q133.45-21.38 132.73-21.38L132.73-21.38L121.32-21.38L121.32-13.82L128.48-13.82L128.48-13.82Q129.20-13.82 129.60-13.43L129.60-13.43L129.60-13.43Q130.00-13.03 130.00-12.31L130.00-12.31L130.00-12.31Q130.00-11.59 129.60-11.20L129.60-11.20L129.60-11.20Q129.20-10.80 128.48-10.80L128.48-10.80L121.32-10.80L121.32-3.02L132.73-3.02ZM156.74-16.52L156.74-16.52Q156.74-13.68 155.41-11.95L155.41-11.95L155.41-11.95Q154.08-10.22 151.56-9.83L151.56-9.83L156.28-1.98L156.28-1.98Q156.49-1.62 156.49-1.19L156.49-1.19L156.49-1.19Q156.49-0.40 155.70 0.07L155.70 0.07L155.70 0.07Q155.23 0.36 154.87 0.36L154.87 0.36L154.87 0.36Q154.15 0.36 153.65-0.43L153.65-0.43L148.18-9.54L148.07-9.72L143.03-9.72L143.03-1.51L143.03-1.51Q143.03-0.79 142.63-0.40L142.63-0.40L142.63-0.40Q142.24 0 141.52 0L141.52 0L141.52 0Q140.80 0 140.40-0.40L140.40-0.40L140.40-0.40Q140.00-0.79 140.00-1.51L140.00-1.51L140.00-22.90L140.00-22.90Q140.00-23.62 140.40-24.01L140.40-24.01L140.40-24.01Q140.80-24.41 141.52-24.41L141.52-24.41L149.94-24.41L149.94-24.41Q153.25-24.41 155.00-22.66L155.00-22.66L155.00-22.66Q156.74-20.92 156.74-17.60L156.74-17.60L156.74-16.52ZM153.72-16.52L153.72-17.60L153.72-17.60Q153.72-19.62 152.86-20.50L152.86-20.50L152.86-20.50Q151.99-21.38 149.94-21.38L149.94-21.38L143.03-21.38L143.03-12.74L149.94-12.74L149.94-12.74Q151.99-12.74 152.86-13.61L152.86-13.61L152.86-13.61Q153.72-14.47 153.72-16.52L153.72-16.52ZM170.17 0L170.17 0Q169.24 0 168.70-1.19L168.70-1.19L159.80-22.25L159.80-22.25Q159.62-22.72 159.62-23.04L159.62-23.04L159.62-23.04Q159.62-23.80 160.49-24.19L160.49-24.19L160.49-24.19Q160.92-24.41 161.35-24.41L161.35-24.41L161.35-24.41Q162.22-24.41 162.58-23.44L162.58-23.44L170.46-4.79L178.13-23.44L178.13-23.44Q178.52-24.41 179.35-24.41L179.35-24.41L179.35-24.41Q179.75-24.41 180.22-24.19L180.22-24.19L180.22-24.19Q181.04-23.80 181.04-22.97L181.04-22.97L181.04-22.97Q181.04-22.57 180.90-22.25L180.90-22.25L171.94-1.19L171.94-1.19Q171.36 0 170.32 0L170.32 0L170.17 0ZM187.16 0L187.16 0Q186.37 0 186.01-0.36L186.01-0.36L186.01-0.36Q185.65-0.72 185.65-1.51L185.65-1.51L185.65-22.86L185.65-22.86Q185.65-23.65 186.01-24.01L186.01-24.01L186.01-24.01Q186.37-24.37 187.16-24.37L187.16-24.37L187.16-24.37Q187.96-24.37 188.32-24.01L188.32-24.01L188.32-24.01Q188.68-23.65 188.68-22.86L188.68-22.86L188.68-1.51L188.68-1.51Q188.68-0.72 188.32-0.36L188.32-0.36L188.32-0.36Q187.96 0 187.16 0L187.16 0ZM203.36 0L203.36 0Q199.22 0 197.26-1.96L197.26-1.96L197.26-1.96Q195.30-3.92 195.30-8.06L195.30-8.06L195.30-16.34L195.30-16.34Q195.30-20.48 197.26-22.46L197.26-22.46L197.26-22.46Q199.22-24.44 203.33-24.41L203.33-24.41L207.68-24.41L207.68-24.41Q211.07-24.41 212.85-23.00L212.85-23.00L212.85-23.00Q214.63-21.60 214.92-18.61L214.92-18.61L214.92-18.61Q215.03-17.86 214.63-17.46L214.63-17.46L214.63-17.46Q214.24-17.06 213.48-17.06L213.48-17.06L213.48-17.06Q212.76-17.06 212.38-17.44L212.38-17.44L212.38-17.44Q212.00-17.82 211.90-18.58L211.90-18.58L211.90-18.58Q211.72-20.20 210.78-20.79L210.78-20.79L210.78-20.79Q209.84-21.38 207.68-21.38L207.68-21.38L203.33-21.38L203.33-21.38Q201.38-21.42 200.30-20.95L200.30-20.95L200.30-20.95Q199.22-20.48 198.77-19.40L198.77-19.40L198.77-19.40Q198.32-18.32 198.32-16.34L198.32-16.34L198.32-8.06L198.32-8.06Q198.32-6.08 198.79-5.02L198.79-5.02L198.79-5.02Q199.26-3.96 200.32-3.49L200.32-3.49L200.32-3.49Q201.38-3.02 203.36-3.02L203.36-3.02L207.68-3.02L207.68-3.02Q209.84-3.02 210.78-3.62L210.78-3.62L210.78-3.62Q211.72-4.21 211.90-5.83L211.90-5.83L211.90-5.83Q212.00-6.59 212.38-6.97L212.38-6.97L212.38-6.97Q212.76-7.34 213.48-7.34L213.48-7.34L213.48-7.34Q214.24-7.34 214.63-6.95L214.63-6.95L214.63-6.95Q215.03-6.55 214.92-5.80L214.92-5.80L214.92-5.80Q214.63-2.81 212.85-1.40L212.85-1.40L212.85-1.40Q211.07 0 207.68 0L207.68 0L203.36 0ZM235.66-3.02L235.66-3.02Q236.38-3.02 236.77-2.63L236.77-2.63L236.77-2.63Q237.17-2.23 237.17-1.51L237.17-1.51L237.17-1.51Q237.17-0.79 236.77-0.40L236.77-0.40L236.77-0.40Q236.38 0 235.66 0L235.66 0L222.73 0L222.73 0Q222.01 0 221.62-0.40L221.62-0.40L221.62-0.40Q221.22-0.79 221.22-1.51L221.22-1.51L221.22-22.90L221.22-22.90Q221.22-23.62 221.62-24.01L221.62-24.01L221.62-24.01Q222.01-24.41 222.73-24.41L222.73-24.41L235.66-24.41L235.66-24.41Q236.38-24.41 236.77-24.01L236.77-24.01L236.77-24.01Q237.17-23.62 237.17-22.90L237.17-22.90L237.17-22.90Q237.17-22.18 236.77-21.78L236.77-21.78L236.77-21.78Q236.38-21.38 235.66-21.38L235.66-21.38L224.24-21.38L224.24-13.82L231.41-13.82L231.41-13.82Q232.13-13.82 232.52-13.43L232.52-13.43L232.52-13.43Q232.92-13.03 232.92-12.31L232.92-12.31L232.92-12.31Q232.92-11.59 232.52-11.20L232.52-11.20L232.52-11.20Q232.13-10.80 231.41-10.80L231.41-10.80L224.24-10.80L224.24-3.02L235.66-3.02ZM249.01 0L249.01 0Q245.92 0 244.21-1.24L244.21-1.24L244.21-1.24Q242.50-2.48 242.06-5.08L242.06-5.08L242.06-5.08Q241.99-5.83 242.39-6.25L242.39-6.25L242.39-6.25Q242.78-6.66 243.54-6.66L243.54-6.66L243.54-6.66Q244.26-6.66 244.62-6.32L244.62-6.32L244.62-6.32Q244.98-5.98 245.12-5.18L245.12-5.18L245.12-5.18Q245.38-3.96 246.26-3.49L246.26-3.49L246.26-3.49Q247.14-3.02 249.01-3.02L249.01-3.02L254.20-3.02L254.20-3.02Q255.78-3.02 256.63-3.38L256.63-3.38L256.63-3.38Q257.47-3.74 257.83-4.59L257.83-4.59L257.83-4.59Q258.19-5.44 258.19-6.98L258.19-6.98L258.19-6.98Q258.19-9.29 257.33-10.15L257.33-10.15L257.33-10.15Q256.46-11.02 254.20-11.02L254.20-11.02L249.73-11.02L249.73-11.02Q246.35-11.02 244.69-12.67L244.69-12.67L244.69-12.67Q243.04-14.33 243.04-17.75L243.04-17.75L243.04-17.75Q243.04-21.13 244.67-22.77L244.67-22.77L244.67-22.77Q246.31-24.41 249.70-24.41L249.70-24.41L253.98-24.41L253.98-24.41Q259.67-24.41 260.53-19.66L260.53-19.66L260.53-19.66Q260.64-18.90 260.24-18.49L260.24-18.49L260.24-18.49Q259.85-18.07 259.06-18.07L259.06-18.07L259.06-18.07Q258.34-18.07 257.98-18.43L257.98-18.43L257.98-18.43Q257.62-18.79 257.51-19.55L257.51-19.55L257.51-19.55Q257.22-20.59 256.43-20.99L256.43-20.99L256.43-20.99Q255.64-21.38 253.98-21.38L253.98-21.38L249.70-21.38L249.70-21.38Q248.22-21.38 247.45-21.06L247.45-21.06L247.45-21.06Q246.67-20.74 246.37-19.96L246.37-19.96L246.37-19.96Q246.06-19.19 246.06-17.75L246.06-17.75L246.06-17.75Q246.06-16.27 246.38-15.50L246.38-15.50L246.38-15.50Q246.71-14.72 247.48-14.38L247.48-14.38L247.48-14.38Q248.26-14.04 249.73-14.04L249.73-14.04L254.20-14.04L254.20-14.04Q257.76-14.04 259.49-12.31L259.49-12.31L259.49-12.31Q261.22-10.58 261.22-6.98L261.22-6.98L261.22-6.98Q261.22-3.42 259.49-1.71L259.49-1.71L259.49-1.71Q257.76 0 254.20 0L254.20 0L249.01 0Z" fill="none" stroke="#ffffff" stroke-width="2" stroke-linejoin="round" stroke-miterlimit="2"/><path transform="translate(6,29.252000000000002)rotate(0)" d="M11.41 0L11.41 0Q10.48 0 9.94-1.19L9.94-1.19L1.04-22.25L1.04-22.25Q0.86-22.72 0.86-23.04L0.86-23.04L0.86-23.04Q0.86-23.80 1.73-24.19L1.73-24.19L1.73-24.19Q2.16-24.41 2.59-24.41L2.59-24.41L2.59-24.41Q3.46-24.41 3.82-23.44L3.82-23.44L11.70-4.79L19.37-23.44L19.37-23.44Q19.76-24.41 20.59-24.41L20.59-24.41L20.59-24.41Q20.99-24.41 21.46-24.19L21.46-24.19L21.46-24.19Q22.28-23.80 22.28-22.97L22.28-22.97L22.28-22.97Q22.28-22.57 22.14-22.25L22.14-22.25L13.18-1.19L13.18-1.19Q12.60 0 11.56 0L11.56 0L11.41 0ZM48.31-24.41L48.31-24.41Q49.54-24.41 49.54-22.90L49.54-22.90L49.54-1.51L49.54-1.51Q49.54-0.79 49.14-0.40L49.14-0.40L49.14-0.40Q48.74 0 48.02 0L48.02 0L48.02 0Q47.30 0 46.91-0.40L46.91-0.40L46.91-0.40Q46.51-0.79 46.51-1.51L46.51-1.51L46.51-18.18L39.89-8.42L39.89-8.42Q39.53-7.92 39.10-7.69L39.10-7.69L39.10-7.69Q38.66-7.45 38.05-7.45L38.05-7.45L38.05-7.45Q37.62-7.45 37.28-7.69L37.28-7.69L37.28-7.69Q36.94-7.92 36.58-8.42L36.58-8.42L29.92-18.22L29.92-1.51L29.92-1.51Q29.92-0.79 29.52-0.40L29.52-0.40L29.52-0.40Q29.12 0 28.40 0L28.40 0L28.40 0Q27.68 0 27.29-0.40L27.29-0.40L27.29-0.40Q26.89-0.79 26.89-1.51L26.89-1.51L26.89-22.90L26.89-22.90Q26.89-23.62 27.29-24.01L27.29-24.01L27.29-24.01Q27.68-24.41 28.40-24.41L28.40-24.41L28.40-24.41Q29.41-24.41 30.06-23.44L30.06-23.44L38.27-11.09L46.48-23.44L46.48-23.44Q47.09-24.41 48.31-24.41L48.31-24.41ZM64.22 0L64.22 0Q60.08 0 58.12-1.96L58.12-1.96L58.12-1.96Q56.16-3.92 56.16-8.06L56.16-8.06L56.16-16.34L56.16-16.34Q56.16-20.48 58.12-22.46L58.12-22.46L58.12-22.46Q60.08-24.44 64.19-24.41L64.19-24.41L68.54-24.41L68.54-24.41Q71.93-24.41 73.71-23.00L73.71-23.00L73.71-23.00Q75.49-21.60 75.78-18.61L75.78-18.61L75.78-18.61Q75.89-17.86 75.49-17.46L75.49-17.46L75.49-17.46Q75.10-17.06 74.34-17.06L74.34-17.06L74.34-17.06Q73.62-17.06 73.24-17.44L73.24-17.44L73.24-17.44Q72.86-17.82 72.76-18.58L72.76-18.58L72.76-18.58Q72.58-20.20 71.64-20.79L71.64-20.79L71.64-20.79Q70.70-21.38 68.54-21.38L68.54-21.38L64.19-21.38L64.19-21.38Q62.24-21.42 61.16-20.95L61.16-20.95L61.16-20.95Q60.08-20.48 59.63-19.40L59.63-19.40L59.63-19.40Q59.18-18.32 59.18-16.34L59.18-16.34L59.18-8.06L59.18-8.06Q59.18-6.08 59.65-5.02L59.65-5.02L59.65-5.02Q60.12-3.96 61.18-3.49L61.18-3.49L61.18-3.49Q62.24-3.02 64.22-3.02L64.22-3.02L68.54-3.02L68.54-3.02Q70.70-3.02 71.64-3.62L71.64-3.62L71.64-3.62Q72.58-4.21 72.76-5.83L72.76-5.83L72.76-5.83Q72.86-6.59 73.24-6.97L73.24-6.97L73.24-6.97Q73.62-7.34 74.34-7.34L74.34-7.34L74.34-7.34Q75.10-7.34 75.49-6.95L75.49-6.95L75.49-6.95Q75.89-6.55 75.78-5.80L75.78-5.80L75.78-5.80Q75.49-2.81 73.71-1.40L73.71-1.40L73.71-1.40Q71.93 0 68.54 0L68.54 0L64.22 0ZM99.47 0L99.47 0Q96.37 0 94.66-1.24L94.66-1.24L94.66-1.24Q92.95-2.48 92.52-5.08L92.52-5.08L92.52-5.08Q92.45-5.83 92.84-6.25L92.84-6.25L92.84-6.25Q93.24-6.66 94.00-6.66L94.00-6.66L94.00-6.66Q94.72-6.66 95.08-6.32L95.08-6.32L95.08-6.32Q95.44-5.98 95.58-5.18L95.58-5.18L95.58-5.18Q95.83-3.96 96.71-3.49L96.71-3.49L96.71-3.49Q97.60-3.02 99.47-3.02L99.47-3.02L104.65-3.02L104.65-3.02Q106.24-3.02 107.08-3.38L107.08-3.38L107.08-3.38Q107.93-3.74 108.29-4.59L108.29-4.59L108.29-4.59Q108.65-5.44 108.65-6.98L108.65-6.98L108.65-6.98Q108.65-9.29 107.78-10.15L107.78-10.15L107.78-10.15Q106.92-11.02 104.65-11.02L104.65-11.02L100.19-11.02L100.19-11.02Q96.80-11.02 95.15-12.67L95.15-12.67L95.15-12.67Q93.49-14.33 93.49-17.75L93.49-17.75L93.49-17.75Q93.49-21.13 95.13-22.77L95.13-22.77L95.13-22.77Q96.77-24.41 100.15-24.41L100.15-24.41L104.44-24.41L104.44-24.41Q110.12-24.41 110.99-19.66L110.99-19.66L110.99-19.66Q111.10-18.90 110.70-18.49L110.70-18.49L110.70-18.49Q110.30-18.07 109.51-18.07L109.51-18.07L109.51-18.07Q108.79-18.07 108.43-18.43L108.43-18.43L108.43-18.43Q108.07-18.79 107.96-19.55L107.96-19.55L107.96-19.55Q107.68-20.59 106.88-20.99L106.88-20.99L106.88-20.99Q106.09-21.38 104.44-21.38L104.44-21.38L100.15-21.38L100.15-21.38Q98.68-21.38 97.90-21.06L97.90-21.06L97.90-21.06Q97.13-20.74 96.82-19.96L96.82-19.96L96.82-19.96Q96.52-19.19 96.52-17.75L96.52-17.75L96.52-17.75Q96.52-16.27 96.84-15.50L96.84-15.50L96.84-15.50Q97.16-14.72 97.94-14.38L97.94-14.38L97.94-14.38Q98.71-14.04 100.19-14.04L100.19-14.04L104.65-14.04L104.65-14.04Q108.22-14.04 109.94-12.31L109.94-12.31L109.94-12.31Q111.67-10.58 111.67-6.98L111.67-6.98L111.67-6.98Q111.67-3.42 109.94-1.71L109.94-1.71L109.94-1.71Q108.22 0 104.65 0L104.65 0L99.47 0ZM132.73-3.02L132.73-3.02Q133.45-3.02 133.85-2.63L133.85-2.63L133.85-2.63Q134.24-2.23 134.24-1.51L134.24-1.51L134.24-1.51Q134.24-0.79 133.85-0.40L133.85-0.40L133.85-0.40Q133.45 0 132.73 0L132.73 0L119.81 0L119.81 0Q119.09 0 118.69-0.40L118.69-0.40L118.69-0.40Q118.30-0.79 118.30-1.51L118.30-1.51L118.30-22.90L118.30-22.90Q118.30-23.62 118.69-24.01L118.69-24.01L118.69-24.01Q119.09-24.41 119.81-24.41L119.81-24.41L132.73-24.41L132.73-24.41Q133.45-24.41 133.85-24.01L133.85-24.01L133.85-24.01Q134.24-23.62 134.24-22.90L134.24-22.90L134.24-22.90Q134.24-22.18 133.85-21.78L133.85-21.78L133.85-21.78Q133.45-21.38 132.73-21.38L132.73-21.38L121.32-21.38L121.32-13.82L128.48-13.82L128.48-13.82Q129.20-13.82 129.60-13.43L129.60-13.43L129.60-13.43Q130.00-13.03 130.00-12.31L130.00-12.31L130.00-12.31Q130.00-11.59 129.60-11.20L129.60-11.20L129.60-11.20Q129.20-10.80 128.48-10.80L128.48-10.80L121.32-10.80L121.32-3.02L132.73-3.02ZM156.74-16.52L156.74-16.52Q156.74-13.68 155.41-11.95L155.41-11.95L155.41-11.95Q154.08-10.22 151.56-9.83L151.56-9.83L156.28-1.98L156.28-1.98Q156.49-1.62 156.49-1.19L156.49-1.19L156.49-1.19Q156.49-0.40 155.70 0.07L155.70 0.07L155.70 0.07Q155.23 0.36 154.87 0.36L154.87 0.36L154.87 0.36Q154.15 0.36 153.65-0.43L153.65-0.43L148.18-9.54L148.07-9.72L143.03-9.72L143.03-1.51L143.03-1.51Q143.03-0.79 142.63-0.40L142.63-0.40L142.63-0.40Q142.24 0 141.52 0L141.52 0L141.52 0Q140.80 0 140.40-0.40L140.40-0.40L140.40-0.40Q140.00-0.79 140.00-1.51L140.00-1.51L140.00-22.90L140.00-22.90Q140.00-23.62 140.40-24.01L140.40-24.01L140.40-24.01Q140.80-24.41 141.52-24.41L141.52-24.41L149.94-24.41L149.94-24.41Q153.25-24.41 155.00-22.66L155.00-22.66L155.00-22.66Q156.74-20.92 156.74-17.60L156.74-17.60L156.74-16.52ZM153.72-16.52L153.72-17.60L153.72-17.60Q153.72-19.62 152.86-20.50L152.86-20.50L152.86-20.50Q151.99-21.38 149.94-21.38L149.94-21.38L143.03-21.38L143.03-12.74L149.94-12.74L149.94-12.74Q151.99-12.74 152.86-13.61L152.86-13.61L152.86-13.61Q153.72-14.47 153.72-16.52L153.72-16.52ZM170.17 0L170.17 0Q169.24 0 168.70-1.19L168.70-1.19L159.80-22.25L159.80-22.25Q159.62-22.72 159.62-23.04L159.62-23.04L159.62-23.04Q159.62-23.80 160.49-24.19L160.49-24.19L160.49-24.19Q160.92-24.41 161.35-24.41L161.35-24.41L161.35-24.41Q162.22-24.41 162.58-23.44L162.58-23.44L170.46-4.79L178.13-23.44L178.13-23.44Q178.52-24.41 179.35-24.41L179.35-24.41L179.35-24.41Q179.75-24.41 180.22-24.19L180.22-24.19L180.22-24.19Q181.04-23.80 181.04-22.97L181.04-22.97L181.04-22.97Q181.04-22.57 180.90-22.25L180.90-22.25L171.94-1.19L171.94-1.19Q171.36 0 170.32 0L170.32 0L170.17 0ZM187.16 0L187.16 0Q186.37 0 186.01-0.36L186.01-0.36L186.01-0.36Q185.65-0.72 185.65-1.51L185.65-1.51L185.65-22.86L185.65-22.86Q185.65-23.65 186.01-24.01L186.01-24.01L186.01-24.01Q186.37-24.37 187.16-24.37L187.16-24.37L187.16-24.37Q187.96-24.37 188.32-24.01L188.32-24.01L188.32-24.01Q188.68-23.65 188.68-22.86L188.68-22.86L188.68-1.51L188.68-1.51Q188.68-0.72 188.32-0.36L188.32-0.36L188.32-0.36Q187.96 0 187.16 0L187.16 0ZM203.36 0L203.36 0Q199.22 0 197.26-1.96L197.26-1.96L197.26-1.96Q195.30-3.92 195.30-8.06L195.30-8.06L195.30-16.34L195.30-16.34Q195.30-20.48 197.26-22.46L197.26-22.46L197.26-22.46Q199.22-24.44 203.33-24.41L203.33-24.41L207.68-24.41L207.68-24.41Q211.07-24.41 212.85-23.00L212.85-23.00L212.85-23.00Q214.63-21.60 214.92-18.61L214.92-18.61L214.92-18.61Q215.03-17.86 214.63-17.46L214.63-17.46L214.63-17.46Q214.24-17.06 213.48-17.06L213.48-17.06L213.48-17.06Q212.76-17.06 212.38-17.44L212.38-17.44L212.38-17.44Q212.00-17.82 211.90-18.58L211.90-18.58L211.90-18.58Q211.72-20.20 210.78-20.79L210.78-20.79L210.78-20.79Q209.84-21.38 207.68-21.38L207.68-21.38L203.33-21.38L203.33-21.38Q201.38-21.42 200.30-20.95L200.30-20.95L200.30-20.95Q199.22-20.48 198.77-19.40L198.77-19.40L198.77-19.40Q198.32-18.32 198.32-16.34L198.32-16.34L198.32-8.06L198.32-8.06Q198.32-6.08 198.79-5.02L198.79-5.02L198.79-5.02Q199.26-3.96 200.32-3.49L200.32-3.49L200.32-3.49Q201.38-3.02 203.36-3.02L203.36-3.02L207.68-3.02L207.68-3.02Q209.84-3.02 210.78-3.62L210.78-3.62L210.78-3.62Q211.72-4.21 211.90-5.83L211.90-5.83L211.90-5.83Q212.00-6.59 212.38-6.97L212.38-6.97L212.38-6.97Q212.76-7.34 213.48-7.34L213.48-7.34L213.48-7.34Q214.24-7.34 214.63-6.95L214.63-6.95L214.63-6.95Q215.03-6.55 214.92-5.80L214.92-5.80L214.92-5.80Q214.63-2.81 212.85-1.40L212.85-1.40L212.85-1.40Q211.07 0 207.68 0L207.68 0L203.36 0ZM235.66-3.02L235.66-3.02Q236.38-3.02 236.77-2.63L236.77-2.63L236.77-2.63Q237.17-2.23 237.17-1.51L237.17-1.51L237.17-1.51Q237.17-0.79 236.77-0.40L236.77-0.40L236.77-0.40Q236.38 0 235.66 0L235.66 0L222.73 0L222.73 0Q222.01 0 221.62-0.40L221.62-0.40L221.62-0.40Q221.22-0.79 221.22-1.51L221.22-1.51L221.22-22.90L221.22-22.90Q221.22-23.62 221.62-24.01L221.62-24.01L221.62-24.01Q222.01-24.41 222.73-24.41L222.73-24.41L235.66-24.41L235.66-24.41Q236.38-24.41 236.77-24.01L236.77-24.01L236.77-24.01Q237.17-23.62 237.17-22.90L237.17-22.90L237.17-22.90Q237.17-22.18 236.77-21.78L236.77-21.78L236.77-21.78Q236.38-21.38 235.66-21.38L235.66-21.38L224.24-21.38L224.24-13.82L231.41-13.82L231.41-13.82Q232.13-13.82 232.52-13.43L232.52-13.43L232.52-13.43Q232.92-13.03 232.92-12.31L232.92-12.31L232.92-12.31Q232.92-11.59 232.52-11.20L232.52-11.20L232.52-11.20Q232.13-10.80 231.41-10.80L231.41-10.80L224.24-10.80L224.24-3.02L235.66-3.02ZM249.01 0L249.01 0Q245.92 0 244.21-1.24L244.21-1.24L244.21-1.24Q242.50-2.48 242.06-5.08L242.06-5.08L242.06-5.08Q241.99-5.83 242.39-6.25L242.39-6.25L242.39-6.25Q242.78-6.66 243.54-6.66L243.54-6.66L243.54-6.66Q244.26-6.66 244.62-6.32L244.62-6.32L244.62-6.32Q244.98-5.98 245.12-5.18L245.12-5.18L245.12-5.18Q245.38-3.96 246.26-3.49L246.26-3.49L246.26-3.49Q247.14-3.02 249.01-3.02L249.01-3.02L254.20-3.02L254.20-3.02Q255.78-3.02 256.63-3.38L256.63-3.38L256.63-3.38Q257.47-3.74 257.83-4.59L257.83-4.59L257.83-4.59Q258.19-5.44 258.19-6.98L258.19-6.98L258.19-6.98Q258.19-9.29 257.33-10.15L257.33-10.15L257.33-10.15Q256.46-11.02 254.20-11.02L254.20-11.02L249.73-11.02L249.73-11.02Q246.35-11.02 244.69-12.67L244.69-12.67L244.69-12.67Q243.04-14.33 243.04-17.75L243.04-17.75L243.04-17.75Q243.04-21.13 244.67-22.77L244.67-22.77L244.67-22.77Q246.31-24.41 249.70-24.41L249.70-24.41L253.98-24.41L253.98-24.41Q259.67-24.41 260.53-19.66L260.53-19.66L260.53-19.66Q260.64-18.90 260.24-18.49L260.24-18.49L260.24-18.49Q259.85-18.07 259.06-18.07L259.06-18.07L259.06-18.07Q258.34-18.07 257.98-18.43L257.98-18.43L257.98-18.43Q257.62-18.79 257.51-19.55L257.51-19.55L257.51-19.55Q257.22-20.59 256.43-20.99L256.43-20.99L256.43-20.99Q255.64-21.38 253.98-21.38L253.98-21.38L249.70-21.38L249.70-21.38Q248.22-21.38 247.45-21.06L247.45-21.06L247.45-21.06Q246.67-20.74 246.37-19.96L246.37-19.96L246.37-19.96Q246.06-19.19 246.06-17.75L246.06-17.75L246.06-17.75Q246.06-16.27 246.38-15.50L246.38-15.50L246.38-15.50Q246.71-14.72 247.48-14.38L247.48-14.38L247.48-14.38Q248.26-14.04 249.73-14.04L249.73-14.04L254.20-14.04L254.20-14.04Q257.76-14.04 259.49-12.31L259.49-12.31L259.49-12.31Q261.22-10.58 261.22-6.98L261.22-6.98L261.22-6.98Q261.22-3.42 259.49-1.71L259.49-1.71L259.49-1.71Q257.76 0 254.20 0L254.20 0L249.01 0Z" fill="#ffffff"/></g><g transform="translate(2.132049560546903,10.555555555555543)translate(100,89.44444444444447)rotate(0)translate(-100,-89.44444444444447) scale(1.1111111111111112,1.1111111111111112)" opacity="1"><defs class="defs"><linearGradient id="linearGradient12b98605a67d937fccfaa71537cd6b6c" class="linearGradient1" gradientTransform="translate(0.5,0.5) rotate(270) translate(-0.5,-0.5)" x1="50%" y1="0%" x2="50%" y2="100%"><stop id="stop1" offset="0%" class="linearGradientColor1" stop-color="#d559cb"/><stop id="stop2" offset="100%" class="linearGradientColor2" stop-color="#00924C"/></linearGradient></defs><path fill="#ffffff" d="M176.272,73.443l-2.485-32.672c1.498-0.666,2.546-2.161,2.546-3.906c0-2.363-1.916-4.279-4.279-4.279&#10;&#9;c-1.495,0-2.808,0.768-3.573,1.929l-31.585-8.268c-0.199-2.179-2.008-3.892-4.24-3.892c-0.92,0-1.768,0.297-2.466,0.791&#10;&#9;L104.866,8.061c0.287-0.689,0.447-1.445,0.447-2.238c0-3.217-2.607-5.823-5.824-5.823s-5.822,2.606-5.822,5.823&#10;&#9;c0,0.203,0.011,0.404,0.031,0.602l-33.822,6.97c-0.534-2-2.34-3.481-4.51-3.481c-2.589,0-4.686,2.098-4.686,4.685&#10;&#9;c0,1.752,0.971,3.26,2.394,4.064L36.15,39.141c-1.167-0.914-2.634-1.463-4.231-1.463c-3.801,0-6.88,3.08-6.88,6.88&#10;&#9;c0,0.776,0.134,1.519,0.371,2.215l-14.554,4.986c-0.763-1.51-2.312-2.555-4.12-2.555c-2.559,0-4.631,2.072-4.631,4.631&#10;&#9;c0,2.526,2.024,4.573,4.539,4.623l1.43,20.074C3.521,79.116,0,82.997,0,87.709c0,5.116,4.148,9.264,9.265,9.264&#10;&#9;c3.661,0,6.816-2.129,8.32-5.211l39.125,20.034c-0.052,0.277-0.086,0.562-0.086,0.854c0,2.559,2.071,4.632,4.631,4.632&#10;&#9;c1.773,0,3.295-1.008,4.074-2.471c5.032,4.362,13.249,3.385,15.304,4.431c10,5.086,10.958,32.864,7.71,42.007&#10;&#9;c6.704,0,22.926,0,22.926,0s-7.094-27.858-0.354-40.163c1.502-2.75,4.512-5.368,7.465-8.449c2.824-1.444,11.666-1.987,14.275-8.336&#10;&#9;c-3.426,3.506-7.283,4.069-10.783,4.282c2.521-3.385,4.42-7.41,4.368-12.578c1.422,2.014,3.763,3.333,6.415,3.333&#10;&#9;c3.854,0,7.056-2.78,7.722-6.442l29.775-11.946c0.892,1.632,2.602,2.752,4.593,2.752c2.904,0,5.256-2.354,5.256-5.255&#10;&#9;C180,76.079,178.425,74.101,176.272,73.443z M174.821,73.199c-0.025,0-0.05-0.008-0.076-0.008c-0.342,0-0.675,0.038-0.999,0.101&#10;&#9;l-11.624-18.859c0.003-0.061,0.018-0.118,0.018-0.179c0-0.048-0.012-0.094-0.015-0.142l8.545-13.216&#10;&#9;c0.437,0.15,0.896,0.249,1.384,0.249c0.191,0,0.375-0.032,0.561-0.057L174.821,73.199z M169.529,40.306l-7.922,12.254&#10;&#9;c-0.514-0.74-1.354-1.228-2.313-1.271l-22.61-23.264c0.053-0.151,0.107-0.3,0.143-0.458l31.127,8.134&#10;&#9;c-0.105,0.373-0.181,0.758-0.181,1.165C167.772,38.281,168.468,39.527,169.529,40.306z M132.655,83.626&#10;&#9;c-0.209,0-0.415,0.016-0.62,0.031l-6.956-17.314c0.758-0.449,1.293-1.217,1.426-2.124l30.343-8.109&#10;&#9;c0.437,0.544,1.052,0.935,1.765,1.068l-19.377,30.022C137.833,85.05,135.412,83.626,132.655,83.626z M123.567,60.811&#10;&#9;c-1.184,0-2.197,0.696-2.677,1.697l-16.695-6.965c0.194-0.723,0.308-1.48,0.308-2.265c0-1.429-0.351-2.773-0.959-3.963l26.382-19.41&#10;&#9;c0.59,0.493,1.307,0.828,2.103,0.945l-8.158,29.99C123.768,60.831,123.67,60.811,123.567,60.811z M61.067,108.037&#10;&#9;c-0.519,0.021-1.014,0.124-1.475,0.301L34.958,50.722c0.857-0.423,1.614-1.015,2.224-1.738l21.965,12.431&#10;&#9;c-0.509,1.041-0.803,2.207-0.803,3.443c0,4.174,3.257,7.578,7.367,7.831L61.067,108.037z M66.351,57.011l-7.755-39.029&#10;&#9;c0.205-0.196,0.388-0.411,0.555-0.64l30.56,29.683c-1.633,1.585-2.651,3.799-2.651,6.254c0,1.1,0.212,2.147,0.583,3.116l-14.098,5.7&#10;&#9;C72.442,59.167,69.648,57.074,66.351,57.011z M133.327,30.846c1.107-0.175,2.064-0.772,2.717-1.624l21.763,22.393&#10;&#9;c-0.961,0.494-1.624,1.484-1.624,2.639c0,0.23,0.031,0.451,0.081,0.666l-29.865,7.981c-0.225-0.713-0.702-1.305-1.336-1.675&#10;&#9;L133.327,30.846z M129.233,24.089c-0.532,0.713-0.857,1.588-0.857,2.545c0,0.856,0.258,1.649,0.69,2.318l-26.188,19.269&#10;&#9;c-1.124-1.575-2.755-2.758-4.659-3.312l1.938-33.306c1.681-0.192,3.141-1.099,4.074-2.41L129.233,24.089z M98.853,11.609&#10;&#9;l-1.921,33.033c-0.378-0.05-0.761-0.085-1.152-0.085c-1.892,0-3.637,0.608-5.065,1.631L59.773,16.133&#10;&#9;c0.158-0.455,0.259-0.937,0.269-1.443l33.938-6.995C94.694,9.798,96.574,11.362,98.853,11.609z M55.365,19.284&#10;&#9;c0.745,0,1.439-0.189,2.065-0.499l7.613,38.312c-2.155,0.318-4.022,1.507-5.234,3.204L37.921,47.915&#10;&#9;c0.557-0.994,0.878-2.137,0.878-3.357c0-1.742-0.652-3.328-1.72-4.54l17.241-20.86C54.657,19.235,55.004,19.284,55.365,19.284z&#10;&#9; M25.976,48.011c0.582,0.999,1.407,1.835,2.396,2.432L12.787,79.143c-1.042-0.429-2.18-0.67-3.373-0.689l-1.59-20.129&#10;&#9;c2.031-0.491,3.543-2.309,3.543-4.49c0-0.241-0.036-0.473-0.071-0.704L25.976,48.011z M18.088,90.525&#10;&#9;c0.283-0.889,0.439-1.834,0.439-2.816c0-3.409-1.846-6.38-4.588-7.988l15.594-28.718c0.744,0.275,1.545,0.434,2.386,0.434&#10;&#9;c0.633,0,1.244-0.093,1.826-0.253l24.71,57.798c-0.577,0.441-1.045,1.01-1.363,1.671L18.088,90.525z M71.278,94.269&#10;&#9;c-2.746,11.418,3.58,20.818,6.956,21.408c-2.381,0.269-7.289,0.965-12.682-1.321c0.21-0.529,0.333-1.103,0.333-1.706&#10;&#9;c0-2.174-1.504-3.985-3.525-4.483l4.664-35.497c3.95-0.413,7.029-3.752,7.029-7.812c0-0.516-0.053-1.019-0.148-1.507l14.289-5.777&#10;&#9;c1.072,1.89,2.825,3.34,4.929,4.012c-8.228,21.475-0.05,54.911,0.861,62.975C86.72,115.008,73.987,110.108,71.278,94.269z&#10;&#9; M124.801,91.481c0,0.671,0.093,1.317,0.251,1.939c-2.367,15.765-16.685,18.895-20.767,26.021&#10;&#9;c-1.311-2.765-3.676-13.93-6.398-26.064c1.172-4.206,9.029-13.389,5.795-19.379c0.715,5.497-5.221,12.122-7.758,14.51&#10;&#9;c-1.405-5.619-3.242-12.336-1.861-26.679C94.619,61.94,95.192,62,95.78,62c3.573,0,6.641-2.151,7.989-5.227l16.821,7.019&#10;&#9;c0.002,1.643,1.333,2.976,2.977,2.976c0.093,0,0.18-0.019,0.27-0.027l6.885,17.136C127.321,84.738,124.801,87.813,124.801,91.481z&#10;&#9; M140.507,91.422c-0.008-1.026-0.214-2.005-0.579-2.901l20.334-31.505c0.539-0.215,0.998-0.581,1.328-1.047l10.931,17.733&#10;&#9;c-1.786,0.839-3.03,2.641-3.03,4.744c0,0.454,0.075,0.887,0.184,1.307L140.507,91.422z" class="color c1"/></g></svg>